# xmcd
#
# Track frame offsets: 
#        150
#        16126
#        55792
#        81930
#        97388
#        110590
#        126250
#        143188
#        157587
#        174756
#        190168
#        207768
#        222098
#        240403
#        254920
#        273031
#
# Disc length: 4280 seconds
#
# Revision: 0
# Processed by: cddbd v1.5.1PL0 Copyright (c) Steve Scherf et al.
# Submitted via: ExactAudioCopy v0.95a5
#
DISCID=d810b610
DTITLE=Marco Brasil - 2004
DYEAR=2004
DGENRE=Country
TTITLE0=No Cabo Da Enxada
TTITLE1=Poema Burrinho Familia
TTITLE2=Bens Materiais
TTITLE3=Meu Velho Pai
TTITLE4=Filho Pródigo
TTITLE5=Amargurado
TTITLE6=Esta É A Minha Paixão
TTITLE7=Jesus Pintou Com As Mãos
TTITLE8=Cunhada Boa
TTITLE9=A Dama Da Boate Azul
TTITLE10=Sou Caipira, Sou Importante
TTITLE11=Colcha De Retalhos
TTITLE12=Me Lambe, Sua Vaga
TTITLE13=Agito Do Meu Povo
TTITLE14=Couboy Da Estrada
TTITLE15=O Sentido Da Vida
EXTD=
EXTT0=
EXTT1=
EXTT2=
EXTT3=
EXTT4=
EXTT5=
EXTT6=
EXTT7=
EXTT8=
EXTT9=
EXTT10=
EXTT11=
EXTT12=
EXTT13=
EXTT14=
EXTT15=
PLAYORDER=
